<mxfile host="65bd71144e">
    <diagram id="EwJqZBersr4pubNy3R9B" name="Page-1">
        <mxGraphModel dx="672" dy="308" grid="1" gridSize="10" guides="1" tooltips="1" connect="1" arrows="1" fold="1" page="1" pageScale="1" pageWidth="850" pageHeight="1100" math="0" shadow="0">
            <root>
                <mxCell id="0"/>
                <mxCell id="1" parent="0"/>
                <mxCell id="1Oe6J-cwjIKAajmshm66-3" value="sd:TensileTestExperiment" style="rounded=0;whiteSpace=wrap;html=1;snapToPoint=1;points=[[0.1,0],[0.2,0],[0.3,0],[0.4,0],[0.5,0],[0.6,0],[0.7,0],[0.8,0],[0.9,0],[0,0.1],[0,0.3],[0,0.5],[0,0.7],[0,0.9],[0.1,1],[0.2,1],[0.3,1],[0.4,1],[0.5,1],[0.6,1],[0.7,1],[0.8,1],[0.9,1],[1,0.1],[1,0.3],[1,0.5],[1,0.7],[1,0.9]];fillColor=#d5e8d4;strokeColor=#82b366;" parent="1" vertex="1">
                    <mxGeometry x="20" y="40" width="210" height="30" as="geometry"/>
                </mxCell>
                <mxCell id="1Oe6J-cwjIKAajmshm66-4" value="&lt;span style=&quot;text-align: left&quot;&gt;holistic:EMMO_ae2d1a96_bfa1_409a_a7d2_03d69e8a125a&lt;/span&gt;" style="edgeStyle=orthogonalEdgeStyle;rounded=0;orthogonalLoop=1;jettySize=auto;html=1;entryX=0;entryY=0.5;entryDx=0;entryDy=0;strokeWidth=2;fillColor=#76608a;strokeColor=#432D57;" parent="1" source="1Oe6J-cwjIKAajmshm66-5" target="1Oe6J-cwjIKAajmshm66-7" edge="1">
                    <mxGeometry relative="1" as="geometry"/>
                </mxCell>
                <mxCell id="1Oe6J-cwjIKAajmshm66-5" value="&lt;u&gt;method:&lt;/u&gt;TensileTestExperiment_01" style="rounded=0;whiteSpace=wrap;html=1;snapToPoint=1;points=[[0.1,0],[0.2,0],[0.3,0],[0.4,0],[0.5,0],[0.6,0],[0.7,0],[0.8,0],[0.9,0],[0,0.1],[0,0.3],[0,0.5],[0,0.7],[0,0.9],[0.1,1],[0.2,1],[0.3,1],[0.4,1],[0.5,1],[0.6,1],[0.7,1],[0.8,1],[0.9,1],[1,0.1],[1,0.3],[1,0.5],[1,0.7],[1,0.9]];fillColor=#fff2cc;strokeColor=#d6b656;" parent="1" vertex="1">
                    <mxGeometry x="20" y="70" width="210" height="30" as="geometry"/>
                </mxCell>
                <mxCell id="1Oe6J-cwjIKAajmshm66-6" value="sd:TestingFacility" style="rounded=0;whiteSpace=wrap;html=1;snapToPoint=1;points=[[0.1,0],[0.2,0],[0.3,0],[0.4,0],[0.5,0],[0.6,0],[0.7,0],[0.8,0],[0.9,0],[0,0.1],[0,0.3],[0,0.5],[0,0.7],[0,0.9],[0.1,1],[0.2,1],[0.3,1],[0.4,1],[0.5,1],[0.6,1],[0.7,1],[0.8,1],[0.9,1],[1,0.1],[1,0.3],[1,0.5],[1,0.7],[1,0.9]];fillColor=#d5e8d4;strokeColor=#82b366;" parent="1" vertex="1">
                    <mxGeometry x="580" y="40" width="160" height="30" as="geometry"/>
                </mxCell>
                <mxCell id="1Oe6J-cwjIKAajmshm66-21" style="edgeStyle=orthogonalEdgeStyle;rounded=0;orthogonalLoop=1;jettySize=auto;html=1;entryX=0;entryY=0.5;entryDx=0;entryDy=0;" parent="1" source="1Oe6J-cwjIKAajmshm66-7" target="1Oe6J-cwjIKAajmshm66-20" edge="1">
                    <mxGeometry relative="1" as="geometry"/>
                </mxCell>
                <mxCell id="1Oe6J-cwjIKAajmshm66-7" value="&lt;u&gt;method:&lt;/u&gt;TestingFacility_01" style="rounded=0;whiteSpace=wrap;html=1;snapToPoint=1;points=[[0.1,0],[0.2,0],[0.3,0],[0.4,0],[0.5,0],[0.6,0],[0.7,0],[0.8,0],[0.9,0],[0,0.1],[0,0.3],[0,0.5],[0,0.7],[0,0.9],[0.1,1],[0.2,1],[0.3,1],[0.4,1],[0.5,1],[0.6,1],[0.7,1],[0.8,1],[0.9,1],[1,0.1],[1,0.3],[1,0.5],[1,0.7],[1,0.9]];fillColor=#fff2cc;strokeColor=#d6b656;" parent="1" vertex="1">
                    <mxGeometry x="580" y="70" width="160" height="30" as="geometry"/>
                </mxCell>
                <mxCell id="1Oe6J-cwjIKAajmshm66-8" value="sd:TensileTestExperiment" style="rounded=0;whiteSpace=wrap;html=1;snapToPoint=1;points=[[0.1,0],[0.2,0],[0.3,0],[0.4,0],[0.5,0],[0.6,0],[0.7,0],[0.8,0],[0.9,0],[0,0.1],[0,0.3],[0,0.5],[0,0.7],[0,0.9],[0.1,1],[0.2,1],[0.3,1],[0.4,1],[0.5,1],[0.6,1],[0.7,1],[0.8,1],[0.9,1],[1,0.1],[1,0.3],[1,0.5],[1,0.7],[1,0.9]];fillColor=#d5e8d4;strokeColor=#82b366;" parent="1" vertex="1">
                    <mxGeometry x="20" y="120" width="210" height="30" as="geometry"/>
                </mxCell>
                <mxCell id="1Oe6J-cwjIKAajmshm66-9" value="&lt;span style=&quot;text-align: left&quot;&gt;holistic:EMMO_ae2d1a96_bfa1_409a_a7d2_03d69e8a125a&lt;/span&gt;" style="edgeStyle=orthogonalEdgeStyle;rounded=0;orthogonalLoop=1;jettySize=auto;html=1;entryX=0;entryY=0.5;entryDx=0;entryDy=0;strokeWidth=2;fillColor=#76608a;strokeColor=#432D57;" parent="1" source="1Oe6J-cwjIKAajmshm66-10" target="1Oe6J-cwjIKAajmshm66-12" edge="1">
                    <mxGeometry relative="1" as="geometry"/>
                </mxCell>
                <mxCell id="1Oe6J-cwjIKAajmshm66-10" value="&lt;u&gt;method:&lt;/u&gt;TensileTestExperiment_02" style="rounded=0;whiteSpace=wrap;html=1;snapToPoint=1;points=[[0.1,0],[0.2,0],[0.3,0],[0.4,0],[0.5,0],[0.6,0],[0.7,0],[0.8,0],[0.9,0],[0,0.1],[0,0.3],[0,0.5],[0,0.7],[0,0.9],[0.1,1],[0.2,1],[0.3,1],[0.4,1],[0.5,1],[0.6,1],[0.7,1],[0.8,1],[0.9,1],[1,0.1],[1,0.3],[1,0.5],[1,0.7],[1,0.9]];fillColor=#fff2cc;strokeColor=#d6b656;" parent="1" vertex="1">
                    <mxGeometry x="20" y="150" width="210" height="30" as="geometry"/>
                </mxCell>
                <mxCell id="1Oe6J-cwjIKAajmshm66-11" value="sd:TestingFacility" style="rounded=0;whiteSpace=wrap;html=1;snapToPoint=1;points=[[0.1,0],[0.2,0],[0.3,0],[0.4,0],[0.5,0],[0.6,0],[0.7,0],[0.8,0],[0.9,0],[0,0.1],[0,0.3],[0,0.5],[0,0.7],[0,0.9],[0.1,1],[0.2,1],[0.3,1],[0.4,1],[0.5,1],[0.6,1],[0.7,1],[0.8,1],[0.9,1],[1,0.1],[1,0.3],[1,0.5],[1,0.7],[1,0.9]];fillColor=#d5e8d4;strokeColor=#82b366;" parent="1" vertex="1">
                    <mxGeometry x="580" y="120" width="160" height="30" as="geometry"/>
                </mxCell>
                <mxCell id="1Oe6J-cwjIKAajmshm66-22" style="edgeStyle=orthogonalEdgeStyle;rounded=0;orthogonalLoop=1;jettySize=auto;html=1;entryX=0;entryY=0.5;entryDx=0;entryDy=0;" parent="1" source="1Oe6J-cwjIKAajmshm66-12" target="1Oe6J-cwjIKAajmshm66-19" edge="1">
                    <mxGeometry relative="1" as="geometry"/>
                </mxCell>
                <mxCell id="1Oe6J-cwjIKAajmshm66-12" value="&lt;u&gt;method:&lt;/u&gt;TestingFacility_02" style="rounded=0;whiteSpace=wrap;html=1;snapToPoint=1;points=[[0.1,0],[0.2,0],[0.3,0],[0.4,0],[0.5,0],[0.6,0],[0.7,0],[0.8,0],[0.9,0],[0,0.1],[0,0.3],[0,0.5],[0,0.7],[0,0.9],[0.1,1],[0.2,1],[0.3,1],[0.4,1],[0.5,1],[0.6,1],[0.7,1],[0.8,1],[0.9,1],[1,0.1],[1,0.3],[1,0.5],[1,0.7],[1,0.9]];fillColor=#fff2cc;strokeColor=#d6b656;" parent="1" vertex="1">
                    <mxGeometry x="580" y="150" width="160" height="30" as="geometry"/>
                </mxCell>
                <mxCell id="1Oe6J-cwjIKAajmshm66-13" value="sd:TensileTestExperiment" style="rounded=0;whiteSpace=wrap;html=1;snapToPoint=1;points=[[0.1,0],[0.2,0],[0.3,0],[0.4,0],[0.5,0],[0.6,0],[0.7,0],[0.8,0],[0.9,0],[0,0.1],[0,0.3],[0,0.5],[0,0.7],[0,0.9],[0.1,1],[0.2,1],[0.3,1],[0.4,1],[0.5,1],[0.6,1],[0.7,1],[0.8,1],[0.9,1],[1,0.1],[1,0.3],[1,0.5],[1,0.7],[1,0.9]];fillColor=#d5e8d4;strokeColor=#82b366;" parent="1" vertex="1">
                    <mxGeometry x="20" y="200" width="210" height="30" as="geometry"/>
                </mxCell>
                <mxCell id="1Oe6J-cwjIKAajmshm66-14" value="&lt;span style=&quot;text-align: left&quot;&gt;holistic:EMMO_ae2d1a96_bfa1_409a_a7d2_03d69e8a125a&lt;/span&gt;" style="edgeStyle=orthogonalEdgeStyle;rounded=0;orthogonalLoop=1;jettySize=auto;html=1;entryX=0;entryY=0.5;entryDx=0;entryDy=0;strokeWidth=2;fillColor=#76608a;strokeColor=#432D57;" parent="1" source="1Oe6J-cwjIKAajmshm66-15" target="1Oe6J-cwjIKAajmshm66-17" edge="1">
                    <mxGeometry relative="1" as="geometry"/>
                </mxCell>
                <mxCell id="1Oe6J-cwjIKAajmshm66-15" value="&lt;u&gt;method:&lt;/u&gt;TensileTestExperiment_03" style="rounded=0;whiteSpace=wrap;html=1;snapToPoint=1;points=[[0.1,0],[0.2,0],[0.3,0],[0.4,0],[0.5,0],[0.6,0],[0.7,0],[0.8,0],[0.9,0],[0,0.1],[0,0.3],[0,0.5],[0,0.7],[0,0.9],[0.1,1],[0.2,1],[0.3,1],[0.4,1],[0.5,1],[0.6,1],[0.7,1],[0.8,1],[0.9,1],[1,0.1],[1,0.3],[1,0.5],[1,0.7],[1,0.9]];fillColor=#fff2cc;strokeColor=#d6b656;" parent="1" vertex="1">
                    <mxGeometry x="20" y="230" width="210" height="30" as="geometry"/>
                </mxCell>
                <mxCell id="1Oe6J-cwjIKAajmshm66-16" value="sd:TestingFacility" style="rounded=0;whiteSpace=wrap;html=1;snapToPoint=1;points=[[0.1,0],[0.2,0],[0.3,0],[0.4,0],[0.5,0],[0.6,0],[0.7,0],[0.8,0],[0.9,0],[0,0.1],[0,0.3],[0,0.5],[0,0.7],[0,0.9],[0.1,1],[0.2,1],[0.3,1],[0.4,1],[0.5,1],[0.6,1],[0.7,1],[0.8,1],[0.9,1],[1,0.1],[1,0.3],[1,0.5],[1,0.7],[1,0.9]];fillColor=#d5e8d4;strokeColor=#82b366;" parent="1" vertex="1">
                    <mxGeometry x="580" y="200" width="160" height="30" as="geometry"/>
                </mxCell>
                <mxCell id="1Oe6J-cwjIKAajmshm66-23" style="edgeStyle=orthogonalEdgeStyle;rounded=0;orthogonalLoop=1;jettySize=auto;html=1;" parent="1" source="1Oe6J-cwjIKAajmshm66-17" target="1Oe6J-cwjIKAajmshm66-18" edge="1">
                    <mxGeometry relative="1" as="geometry"/>
                </mxCell>
                <mxCell id="1Oe6J-cwjIKAajmshm66-17" value="&lt;u&gt;method:&lt;/u&gt;TestingFacility_03" style="rounded=0;whiteSpace=wrap;html=1;snapToPoint=1;points=[[0.1,0],[0.2,0],[0.3,0],[0.4,0],[0.5,0],[0.6,0],[0.7,0],[0.8,0],[0.9,0],[0,0.1],[0,0.3],[0,0.5],[0,0.7],[0,0.9],[0.1,1],[0.2,1],[0.3,1],[0.4,1],[0.5,1],[0.6,1],[0.7,1],[0.8,1],[0.9,1],[1,0.1],[1,0.3],[1,0.5],[1,0.7],[1,0.9]];fillColor=#fff2cc;strokeColor=#d6b656;" parent="1" vertex="1">
                    <mxGeometry x="580" y="230" width="160" height="30" as="geometry"/>
                </mxCell>
                <mxCell id="1Oe6J-cwjIKAajmshm66-18" value="&lt;u&gt;InfAI&lt;/u&gt;" style="rounded=0;whiteSpace=wrap;html=1;snapToPoint=1;points=[[0.1,0],[0.2,0],[0.3,0],[0.4,0],[0.5,0],[0.6,0],[0.7,0],[0.8,0],[0.9,0],[0,0.1],[0,0.3],[0,0.5],[0,0.7],[0,0.9],[0.1,1],[0.2,1],[0.3,1],[0.4,1],[0.5,1],[0.6,1],[0.7,1],[0.8,1],[0.9,1],[1,0.1],[1,0.3],[1,0.5],[1,0.7],[1,0.9]];fillColor=#f8cecc;strokeColor=#b85450;" parent="1" vertex="1">
                    <mxGeometry x="780" y="230" width="160" height="30" as="geometry"/>
                </mxCell>
                <mxCell id="1Oe6J-cwjIKAajmshm66-19" value="&lt;u&gt;MPI&lt;/u&gt;" style="rounded=0;whiteSpace=wrap;html=1;snapToPoint=1;points=[[0.1,0],[0.2,0],[0.3,0],[0.4,0],[0.5,0],[0.6,0],[0.7,0],[0.8,0],[0.9,0],[0,0.1],[0,0.3],[0,0.5],[0,0.7],[0,0.9],[0.1,1],[0.2,1],[0.3,1],[0.4,1],[0.5,1],[0.6,1],[0.7,1],[0.8,1],[0.9,1],[1,0.1],[1,0.3],[1,0.5],[1,0.7],[1,0.9]];fillColor=#f8cecc;strokeColor=#b85450;" parent="1" vertex="1">
                    <mxGeometry x="780" y="150" width="160" height="30" as="geometry"/>
                </mxCell>
                <mxCell id="1Oe6J-cwjIKAajmshm66-20" value="&lt;u&gt;IWM&lt;/u&gt;" style="rounded=0;whiteSpace=wrap;html=1;snapToPoint=1;points=[[0.1,0],[0.2,0],[0.3,0],[0.4,0],[0.5,0],[0.6,0],[0.7,0],[0.8,0],[0.9,0],[0,0.1],[0,0.3],[0,0.5],[0,0.7],[0,0.9],[0.1,1],[0.2,1],[0.3,1],[0.4,1],[0.5,1],[0.6,1],[0.7,1],[0.8,1],[0.9,1],[1,0.1],[1,0.3],[1,0.5],[1,0.7],[1,0.9]];fillColor=#f8cecc;strokeColor=#b85450;" parent="1" vertex="1">
                    <mxGeometry x="780" y="70" width="160" height="30" as="geometry"/>
                </mxCell>
                <mxCell id="1Oe6J-cwjIKAajmshm66-24" value="sd:TensileTestExperiment" style="rounded=0;whiteSpace=wrap;html=1;snapToPoint=1;points=[[0.1,0],[0.2,0],[0.3,0],[0.4,0],[0.5,0],[0.6,0],[0.7,0],[0.8,0],[0.9,0],[0,0.1],[0,0.3],[0,0.5],[0,0.7],[0,0.9],[0.1,1],[0.2,1],[0.3,1],[0.4,1],[0.5,1],[0.6,1],[0.7,1],[0.8,1],[0.9,1],[1,0.1],[1,0.3],[1,0.5],[1,0.7],[1,0.9]];fillColor=#d5e8d4;strokeColor=#82b366;" parent="1" vertex="1">
                    <mxGeometry x="20" y="390" width="180" height="30" as="geometry"/>
                </mxCell>
                <mxCell id="1Oe6J-cwjIKAajmshm66-25" value="&lt;span style=&quot;text-align: left&quot;&gt;holistic:EMMO_ae2d1a96_bfa1_409a_a7d2_03d69e8a125a&lt;/span&gt;" style="edgeStyle=orthogonalEdgeStyle;rounded=0;orthogonalLoop=1;jettySize=auto;html=1;entryX=0;entryY=0.5;entryDx=0;entryDy=0;strokeWidth=2;fillColor=#76608a;strokeColor=#432D57;" parent="1" source="1Oe6J-cwjIKAajmshm66-26" target="1Oe6J-cwjIKAajmshm66-28" edge="1">
                    <mxGeometry relative="1" as="geometry"/>
                </mxCell>
                <mxCell id="1Oe6J-cwjIKAajmshm66-26" value="&lt;u&gt;method:&lt;/u&gt;TensileTestExperiment" style="rounded=0;whiteSpace=wrap;html=1;snapToPoint=1;points=[[0.1,0],[0.2,0],[0.3,0],[0.4,0],[0.5,0],[0.6,0],[0.7,0],[0.8,0],[0.9,0],[0,0.1],[0,0.3],[0,0.5],[0,0.7],[0,0.9],[0.1,1],[0.2,1],[0.3,1],[0.4,1],[0.5,1],[0.6,1],[0.7,1],[0.8,1],[0.9,1],[1,0.1],[1,0.3],[1,0.5],[1,0.7],[1,0.9]];fillColor=#fff2cc;strokeColor=#d6b656;" parent="1" vertex="1">
                    <mxGeometry x="20" y="420" width="180" height="30" as="geometry"/>
                </mxCell>
                <mxCell id="1Oe6J-cwjIKAajmshm66-27" value="sd:TestingFacility" style="rounded=0;whiteSpace=wrap;html=1;snapToPoint=1;points=[[0.1,0],[0.2,0],[0.3,0],[0.4,0],[0.5,0],[0.6,0],[0.7,0],[0.8,0],[0.9,0],[0,0.1],[0,0.3],[0,0.5],[0,0.7],[0,0.9],[0.1,1],[0.2,1],[0.3,1],[0.4,1],[0.5,1],[0.6,1],[0.7,1],[0.8,1],[0.9,1],[1,0.1],[1,0.3],[1,0.5],[1,0.7],[1,0.9]];fillColor=#d5e8d4;strokeColor=#82b366;" parent="1" vertex="1">
                    <mxGeometry x="580" y="390" width="160" height="30" as="geometry"/>
                </mxCell>
                <mxCell id="1Oe6J-cwjIKAajmshm66-31" style="edgeStyle=orthogonalEdgeStyle;rounded=0;orthogonalLoop=1;jettySize=auto;html=1;entryX=0;entryY=0.5;entryDx=0;entryDy=0;strokeWidth=2;" parent="1" source="1Oe6J-cwjIKAajmshm66-28" target="1Oe6J-cwjIKAajmshm66-30" edge="1">
                    <mxGeometry relative="1" as="geometry"/>
                </mxCell>
                <mxCell id="1Oe6J-cwjIKAajmshm66-32" value="ns1:designated_by" style="edgeLabel;html=1;align=center;verticalAlign=middle;resizable=0;points=[];" parent="1Oe6J-cwjIKAajmshm66-31" vertex="1" connectable="0">
                    <mxGeometry x="0.2" y="1" relative="1" as="geometry">
                        <mxPoint x="-24" y="1" as="offset"/>
                    </mxGeometry>
                </mxCell>
                <mxCell id="1Oe6J-cwjIKAajmshm66-28" value="&lt;u&gt;method:&lt;/u&gt;TestingFacility" style="rounded=0;whiteSpace=wrap;html=1;snapToPoint=1;points=[[0.1,0],[0.2,0],[0.3,0],[0.4,0],[0.5,0],[0.6,0],[0.7,0],[0.8,0],[0.9,0],[0,0.1],[0,0.3],[0,0.5],[0,0.7],[0,0.9],[0.1,1],[0.2,1],[0.3,1],[0.4,1],[0.5,1],[0.6,1],[0.7,1],[0.8,1],[0.9,1],[1,0.1],[1,0.3],[1,0.5],[1,0.7],[1,0.9]];fillColor=#fff2cc;strokeColor=#d6b656;" parent="1" vertex="1">
                    <mxGeometry x="580" y="420" width="160" height="30" as="geometry"/>
                </mxCell>
                <mxCell id="1Oe6J-cwjIKAajmshm66-29" value="sd:metadata" style="rounded=0;whiteSpace=wrap;html=1;snapToPoint=1;points=[[0.1,0],[0.2,0],[0.3,0],[0.4,0],[0.5,0],[0.6,0],[0.7,0],[0.8,0],[0.9,0],[0,0.1],[0,0.3],[0,0.5],[0,0.7],[0,0.9],[0.1,1],[0.2,1],[0.3,1],[0.4,1],[0.5,1],[0.6,1],[0.7,1],[0.8,1],[0.9,1],[1,0.1],[1,0.3],[1,0.5],[1,0.7],[1,0.9]];fillColor=#d5e8d4;strokeColor=#82b366;" parent="1" vertex="1">
                    <mxGeometry x="930" y="390" width="160" height="30" as="geometry"/>
                </mxCell>
                <mxCell id="1Oe6J-cwjIKAajmshm66-30" value="&lt;u&gt;fileid:metadata-1&lt;/u&gt;" style="rounded=0;whiteSpace=wrap;html=1;snapToPoint=1;points=[[0.1,0],[0.2,0],[0.3,0],[0.4,0],[0.5,0],[0.6,0],[0.7,0],[0.8,0],[0.9,0],[0,0.1],[0,0.3],[0,0.5],[0,0.7],[0,0.9],[0.1,1],[0.2,1],[0.3,1],[0.4,1],[0.5,1],[0.6,1],[0.7,1],[0.8,1],[0.9,1],[1,0.1],[1,0.3],[1,0.5],[1,0.7],[1,0.9]];fillColor=#fff2cc;strokeColor=#d6b656;" parent="1" vertex="1">
                    <mxGeometry x="930" y="420" width="160" height="30" as="geometry"/>
                </mxCell>
                <mxCell id="1Oe6J-cwjIKAajmshm66-33" style="edgeStyle=orthogonalEdgeStyle;rounded=0;orthogonalLoop=1;jettySize=auto;html=1;entryX=0;entryY=0.5;entryDx=0;entryDy=0;strokeWidth=2;" parent="1" target="1Oe6J-cwjIKAajmshm66-34" edge="1">
                    <mxGeometry relative="1" as="geometry">
                        <mxPoint x="1090" y="435" as="sourcePoint"/>
                    </mxGeometry>
                </mxCell>
                <mxCell id="1Oe6J-cwjIKAajmshm66-34" value="&lt;u&gt;IWM&lt;/u&gt;" style="rounded=0;whiteSpace=wrap;html=1;snapToPoint=1;points=[[0.1,0],[0.2,0],[0.3,0],[0.4,0],[0.5,0],[0.6,0],[0.7,0],[0.8,0],[0.9,0],[0,0.1],[0,0.3],[0,0.5],[0,0.7],[0,0.9],[0.1,1],[0.2,1],[0.3,1],[0.4,1],[0.5,1],[0.6,1],[0.7,1],[0.8,1],[0.9,1],[1,0.1],[1,0.3],[1,0.5],[1,0.7],[1,0.9]];fillColor=#f8cecc;strokeColor=#b85450;" parent="1" vertex="1">
                    <mxGeometry x="1130" y="420" width="160" height="30" as="geometry"/>
                </mxCell>
                <mxCell id="1Oe6J-cwjIKAajmshm66-35" style="edgeStyle=orthogonalEdgeStyle;rounded=0;orthogonalLoop=1;jettySize=auto;html=1;entryX=0;entryY=0.5;entryDx=0;entryDy=0;exitX=0.7;exitY=1;exitDx=0;exitDy=0;strokeWidth=2;" parent="1" source="1Oe6J-cwjIKAajmshm66-28" target="1Oe6J-cwjIKAajmshm66-38" edge="1">
                    <mxGeometry relative="1" as="geometry">
                        <mxPoint x="740" y="525" as="sourcePoint"/>
                    </mxGeometry>
                </mxCell>
                <mxCell id="1Oe6J-cwjIKAajmshm66-36" value="ns1:designated_by" style="edgeLabel;html=1;align=center;verticalAlign=middle;resizable=0;points=[];" parent="1Oe6J-cwjIKAajmshm66-35" vertex="1" connectable="0">
                    <mxGeometry x="0.2" y="1" relative="1" as="geometry">
                        <mxPoint x="-24" y="1" as="offset"/>
                    </mxGeometry>
                </mxCell>
                <mxCell id="1Oe6J-cwjIKAajmshm66-37" value="sd:metadata" style="rounded=0;whiteSpace=wrap;html=1;snapToPoint=1;points=[[0.1,0],[0.2,0],[0.3,0],[0.4,0],[0.5,0],[0.6,0],[0.7,0],[0.8,0],[0.9,0],[0,0.1],[0,0.3],[0,0.5],[0,0.7],[0,0.9],[0.1,1],[0.2,1],[0.3,1],[0.4,1],[0.5,1],[0.6,1],[0.7,1],[0.8,1],[0.9,1],[1,0.1],[1,0.3],[1,0.5],[1,0.7],[1,0.9]];fillColor=#d5e8d4;strokeColor=#82b366;" parent="1" vertex="1">
                    <mxGeometry x="930" y="480" width="160" height="30" as="geometry"/>
                </mxCell>
                <mxCell id="1Oe6J-cwjIKAajmshm66-38" value="&lt;u&gt;fileid:metadata-1&lt;/u&gt;" style="rounded=0;whiteSpace=wrap;html=1;snapToPoint=1;points=[[0.1,0],[0.2,0],[0.3,0],[0.4,0],[0.5,0],[0.6,0],[0.7,0],[0.8,0],[0.9,0],[0,0.1],[0,0.3],[0,0.5],[0,0.7],[0,0.9],[0.1,1],[0.2,1],[0.3,1],[0.4,1],[0.5,1],[0.6,1],[0.7,1],[0.8,1],[0.9,1],[1,0.1],[1,0.3],[1,0.5],[1,0.7],[1,0.9]];fillColor=#fff2cc;strokeColor=#d6b656;" parent="1" vertex="1">
                    <mxGeometry x="930" y="510" width="160" height="30" as="geometry"/>
                </mxCell>
                <mxCell id="1Oe6J-cwjIKAajmshm66-39" style="edgeStyle=orthogonalEdgeStyle;rounded=0;orthogonalLoop=1;jettySize=auto;html=1;entryX=0;entryY=0.5;entryDx=0;entryDy=0;strokeWidth=2;" parent="1" target="1Oe6J-cwjIKAajmshm66-40" edge="1">
                    <mxGeometry relative="1" as="geometry">
                        <mxPoint x="1090" y="525" as="sourcePoint"/>
                    </mxGeometry>
                </mxCell>
                <mxCell id="1Oe6J-cwjIKAajmshm66-40" value="&lt;u&gt;MPI&lt;/u&gt;" style="rounded=0;whiteSpace=wrap;html=1;snapToPoint=1;points=[[0.1,0],[0.2,0],[0.3,0],[0.4,0],[0.5,0],[0.6,0],[0.7,0],[0.8,0],[0.9,0],[0,0.1],[0,0.3],[0,0.5],[0,0.7],[0,0.9],[0.1,1],[0.2,1],[0.3,1],[0.4,1],[0.5,1],[0.6,1],[0.7,1],[0.8,1],[0.9,1],[1,0.1],[1,0.3],[1,0.5],[1,0.7],[1,0.9]];fillColor=#f8cecc;strokeColor=#b85450;" parent="1" vertex="1">
                    <mxGeometry x="1130" y="510" width="160" height="30" as="geometry"/>
                </mxCell>
                <mxCell id="1Oe6J-cwjIKAajmshm66-41" style="edgeStyle=orthogonalEdgeStyle;rounded=0;orthogonalLoop=1;jettySize=auto;html=1;entryX=0;entryY=0.5;entryDx=0;entryDy=0;exitX=0.5;exitY=1;exitDx=0;exitDy=0;strokeWidth=2;" parent="1" source="1Oe6J-cwjIKAajmshm66-28" target="1Oe6J-cwjIKAajmshm66-44" edge="1">
                    <mxGeometry relative="1" as="geometry">
                        <mxPoint x="740" y="615" as="sourcePoint"/>
                    </mxGeometry>
                </mxCell>
                <mxCell id="1Oe6J-cwjIKAajmshm66-42" value="ns1:designated_by" style="edgeLabel;html=1;align=center;verticalAlign=middle;resizable=0;points=[];" parent="1Oe6J-cwjIKAajmshm66-41" vertex="1" connectable="0">
                    <mxGeometry x="0.2" y="1" relative="1" as="geometry">
                        <mxPoint x="-24" y="1" as="offset"/>
                    </mxGeometry>
                </mxCell>
                <mxCell id="1Oe6J-cwjIKAajmshm66-43" value="sd:metadata" style="rounded=0;whiteSpace=wrap;html=1;snapToPoint=1;points=[[0.1,0],[0.2,0],[0.3,0],[0.4,0],[0.5,0],[0.6,0],[0.7,0],[0.8,0],[0.9,0],[0,0.1],[0,0.3],[0,0.5],[0,0.7],[0,0.9],[0.1,1],[0.2,1],[0.3,1],[0.4,1],[0.5,1],[0.6,1],[0.7,1],[0.8,1],[0.9,1],[1,0.1],[1,0.3],[1,0.5],[1,0.7],[1,0.9]];fillColor=#d5e8d4;strokeColor=#82b366;" parent="1" vertex="1">
                    <mxGeometry x="930" y="570" width="160" height="30" as="geometry"/>
                </mxCell>
                <mxCell id="1Oe6J-cwjIKAajmshm66-44" value="&lt;u&gt;fileid:metadata-1&lt;/u&gt;" style="rounded=0;whiteSpace=wrap;html=1;snapToPoint=1;points=[[0.1,0],[0.2,0],[0.3,0],[0.4,0],[0.5,0],[0.6,0],[0.7,0],[0.8,0],[0.9,0],[0,0.1],[0,0.3],[0,0.5],[0,0.7],[0,0.9],[0.1,1],[0.2,1],[0.3,1],[0.4,1],[0.5,1],[0.6,1],[0.7,1],[0.8,1],[0.9,1],[1,0.1],[1,0.3],[1,0.5],[1,0.7],[1,0.9]];fillColor=#fff2cc;strokeColor=#d6b656;" parent="1" vertex="1">
                    <mxGeometry x="930" y="600" width="160" height="30" as="geometry"/>
                </mxCell>
                <mxCell id="1Oe6J-cwjIKAajmshm66-45" style="edgeStyle=orthogonalEdgeStyle;rounded=0;orthogonalLoop=1;jettySize=auto;html=1;entryX=0;entryY=0.5;entryDx=0;entryDy=0;strokeWidth=2;" parent="1" target="1Oe6J-cwjIKAajmshm66-46" edge="1">
                    <mxGeometry relative="1" as="geometry">
                        <mxPoint x="1090" y="615" as="sourcePoint"/>
                    </mxGeometry>
                </mxCell>
                <mxCell id="1Oe6J-cwjIKAajmshm66-46" value="&lt;u&gt;InfAI&lt;/u&gt;" style="rounded=0;whiteSpace=wrap;html=1;snapToPoint=1;points=[[0.1,0],[0.2,0],[0.3,0],[0.4,0],[0.5,0],[0.6,0],[0.7,0],[0.8,0],[0.9,0],[0,0.1],[0,0.3],[0,0.5],[0,0.7],[0,0.9],[0.1,1],[0.2,1],[0.3,1],[0.4,1],[0.5,1],[0.6,1],[0.7,1],[0.8,1],[0.9,1],[1,0.1],[1,0.3],[1,0.5],[1,0.7],[1,0.9]];fillColor=#f8cecc;strokeColor=#b85450;" parent="1" vertex="1">
                    <mxGeometry x="1130" y="600" width="160" height="30" as="geometry"/>
                </mxCell>
                <mxCell id="1Oe6J-cwjIKAajmshm66-47" value="Generate ABox using a Template" style="text;html=1;strokeColor=none;fillColor=none;align=center;verticalAlign=middle;whiteSpace=wrap;rounded=0;" parent="1" vertex="1">
                    <mxGeometry x="30" y="10" width="180" height="20" as="geometry"/>
                </mxCell>
                <mxCell id="1Oe6J-cwjIKAajmshm66-48" value="Generate ABox using multiple relations" style="text;html=1;strokeColor=none;fillColor=none;align=center;verticalAlign=middle;whiteSpace=wrap;rounded=0;" parent="1" vertex="1">
                    <mxGeometry x="30" y="330" width="210" height="20" as="geometry"/>
                </mxCell>
            </root>
        </mxGraphModel>
    </diagram>
</mxfile>
